<svg xmlns="http://www.w3.org/2000/svg" height="512pt" version="1.1" viewBox="0 0 512 512" width="512pt">
<g id="surface1">
<path d="M 512 256 C 512 397.386719 397.386719 512 256 512 C 114.613281 512 0 397.386719 0 256 C 0 114.613281 114.613281 0 256 0 C 397.386719 0 512 114.613281 512 256 Z M 512 256 " style=" stroke:none;fill-rule:nonzero;fill:rgb(100%,38.823529%,24.313725%);fill-opacity:1;" />
<path d="M 510.71875 281.742188 L 295.308594 66.332031 L 114.550781 66.332031 L 114.550781 437.664062 L 176.171875 499.289062 C 201.296875 507.527344 228.121094 512 256 512 C 388.695312 512 497.804688 411.039062 510.71875 281.742188 Z M 510.71875 281.742188 " style=" stroke:none;fill-rule:nonzero;fill:rgb(79.215686%,11.764706%,0%);fill-opacity:1;" />
<path d="M 114.550781 66.332031 L 114.550781 437.667969 L 397.449219 437.667969 L 397.449219 168.476562 L 295.308594 66.332031 Z M 114.550781 66.332031 " style=" stroke:none;fill-rule:nonzero;fill:rgb(100%,100%,100%);fill-opacity:1;" />
<path d="M 397.449219 168.480469 L 397.449219 437.671875 L 256 437.671875 L 256 66.328125 L 295.308594 66.328125 Z M 397.449219 168.480469 " style=" stroke:none;fill-rule:nonzero;fill:rgb(100%,96.078431%,79.607843%);fill-opacity:1;" />
<path d="M 209.699219 191.707031 L 209.699219 225.378906 C 209.699219 227.085938 209.296875 228.835938 208.496094 230.640625 C 207.691406 232.445312 206.488281 234.046875 204.886719 235.449219 C 206.390625 236.855469 207.566406 238.457031 208.421875 240.261719 C 209.269531 242.066406 209.699219 243.820312 209.699219 245.523438 L 209.699219 280.847656 L 217.964844 280.847656 L 217.964844 294.226562 L 198.125 294.226562 C 197.421875 294.226562 196.671875 293.898438 195.867188 293.25 C 195.066406 292.597656 194.664062 291.417969 194.664062 289.714844 L 194.664062 250.632812 C 194.664062 248.230469 194.011719 246.148438 192.710938 244.394531 C 191.410156 242.644531 189.753906 241.566406 187.75 241.164062 L 187.75 229.4375 C 188.753906 229.4375 189.679688 229.136719 190.53125 228.535156 C 191.382812 227.9375 192.109375 227.160156 192.710938 226.207031 C 193.3125 225.257812 193.789062 224.253906 194.140625 223.199219 C 194.488281 222.148438 194.664062 221.171875 194.664062 220.269531 L 194.664062 182.839844 C 194.664062 180.9375 195.117188 179.710938 196.019531 179.15625 C 196.921875 178.609375 197.621094 178.332031 198.125 178.332031 L 217.964844 178.332031 L 217.964844 191.710938 L 209.699219 191.710938 Z M 209.699219 191.707031 " style=" stroke:none;fill-rule:nonzero;fill:rgb(0%,93.72549%,81.960784%);fill-opacity:1;" />
<path d="M 250.824219 304.144531 L 254.433594 288.664062 L 249.023438 288.664062 L 249.023438 270.324219 L 263.902344 270.324219 L 263.902344 288.664062 L 258.644531 304.144531 Z M 249.171875 230.789062 L 249.171875 211.699219 L 262.703125 211.699219 L 262.703125 230.789062 Z M 249.171875 230.789062 " style=" stroke:none;fill-rule:nonzero;fill:rgb(0%,93.72549%,81.960784%);fill-opacity:1;" />
<path d="M 256.011719 211.703125 L 256.011719 230.792969 L 262.703125 230.792969 L 262.703125 211.703125 Z M 256.011719 270.324219 L 256.011719 304.144531 L 258.644531 304.144531 L 263.902344 288.664062 L 263.902344 270.324219 Z M 256.011719 270.324219 " style=" stroke:none;fill-rule:nonzero;fill:rgb(0%,67.843137%,58.431373%);fill-opacity:1;" />
<path d="M 295.035156 191.707031 L 295.035156 178.328125 L 314.726562 178.328125 C 315.226562 178.328125 315.929688 178.605469 316.832031 179.15625 C 317.734375 179.710938 318.183594 180.9375 318.183594 182.839844 L 318.183594 220.269531 C 318.183594 221.171875 318.335938 222.148438 318.636719 223.199219 C 318.9375 224.253906 319.386719 225.253906 319.988281 226.207031 C 320.589844 227.160156 321.316406 227.933594 322.167969 228.535156 C 323.019531 229.136719 323.996094 229.4375 325.101562 229.4375 L 325.101562 241.160156 C 323.09375 241.5625 321.441406 242.640625 320.140625 244.394531 C 318.835938 246.148438 318.183594 248.226562 318.183594 250.632812 L 318.183594 289.714844 C 318.183594 291.417969 317.785156 292.59375 316.984375 293.246094 C 316.179688 293.898438 315.429688 294.226562 314.726562 294.226562 L 295.035156 294.226562 L 295.035156 280.847656 L 303.304688 280.847656 L 303.304688 245.519531 C 303.304688 243.816406 303.679688 242.0625 304.429688 240.261719 C 305.183594 238.457031 306.359375 236.855469 307.964844 235.449219 C 306.359375 234.046875 305.183594 232.441406 304.429688 230.640625 C 303.679688 228.835938 303.304688 227.085938 303.304688 225.378906 L 303.304688 191.707031 Z M 295.035156 191.707031 " style=" stroke:none;fill-rule:nonzero;fill:rgb(0%,67.843137%,58.431373%);fill-opacity:1;" />
<path d="M 397.449219 168.476562 L 295.308594 66.332031 L 295.308594 168.476562 Z M 397.449219 168.476562 " style=" stroke:none;fill-rule:nonzero;fill:rgb(78.431373%,77.647059%,80%);fill-opacity:1;" />
<path d="M 114.550781 348 L 397.449219 348 L 397.449219 437.667969 L 114.550781 437.667969 Z M 114.550781 348 " style=" stroke:none;fill-rule:nonzero;fill:rgb(0%,93.72549%,81.960784%);fill-opacity:1;" />
<path d="M 256 348 L 397.449219 348 L 397.449219 437.671875 L 256 437.671875 Z M 256 348 " style=" stroke:none;fill-rule:nonzero;fill:rgb(0%,67.843137%,58.431373%);fill-opacity:1;" />
<path d="M 221.882812 408.742188 C 222.597656 409.253906 223.804688 409.816406 225.492188 410.433594 C 227.183594 411.046875 229.132812 411.355469 231.335938 411.355469 C 233.484375 411.355469 235.203125 410.984375 236.484375 410.238281 C 237.765625 409.496094 238.738281 408.355469 239.402344 406.820312 C 240.070312 405.285156 240.503906 403.375 240.710938 401.09375 C 240.914062 398.816406 241.019531 396.136719 241.019531 393.0625 L 241.019531 365.320312 L 251.625 365.320312 L 251.625 393.0625 C 251.625 397.214844 251.40625 400.992188 250.96875 404.398438 C 250.535156 407.808594 249.613281 410.714844 248.203125 413.121094 C 246.792969 415.53125 244.757812 417.402344 242.09375 418.730469 C 239.429688 420.0625 235.84375 420.730469 231.335938 420.730469 C 226.722656 420.730469 222.777344 419.605469 219.5 417.347656 Z M 221.882812 408.742188 " style=" stroke:none;fill-rule:nonzero;fill:rgb(100%,100%,100%);fill-opacity:1;" />
<path d="M 294.890625 379.613281 C 294.53125 379.257812 293.878906 378.769531 292.929688 378.15625 C 291.980469 377.539062 290.828125 376.9375 289.472656 376.347656 C 288.113281 375.761719 286.640625 375.261719 285.054688 374.851562 C 283.464844 374.441406 281.851562 374.234375 280.214844 374.234375 C 277.292969 374.234375 275.113281 374.773438 273.679688 375.851562 C 272.246094 376.925781 271.527344 378.4375 271.527344 380.382812 C 271.527344 381.511719 271.796875 382.445312 272.335938 383.1875 C 272.875 383.933594 273.652344 384.585938 274.679688 385.148438 C 275.703125 385.714844 276.996094 386.226562 278.5625 386.6875 C 280.121094 387.148438 281.929688 387.632812 283.980469 388.144531 C 286.640625 388.863281 289.0625 389.632812 291.242188 390.449219 C 293.417969 391.269531 295.261719 392.296875 296.773438 393.523438 C 298.285156 394.753906 299.449219 396.226562 300.269531 397.945312 C 301.089844 399.660156 301.5 401.773438 301.5 404.285156 C 301.5 407.203125 300.949219 409.703125 299.847656 411.777344 C 298.746094 413.851562 297.261719 415.53125 295.390625 416.8125 C 293.519531 418.09375 291.367188 419.027344 288.9375 419.617188 C 286.503906 420.203125 283.953125 420.5 281.289062 420.5 C 277.191406 420.5 273.144531 419.886719 269.148438 418.65625 C 265.152344 417.425781 261.5625 415.683594 258.386719 413.429688 L 263.074219 404.285156 C 263.535156 404.746094 264.367188 405.347656 265.574219 406.089844 C 266.777344 406.832031 268.199219 407.574219 269.839844 408.316406 C 271.476562 409.0625 273.296875 409.6875 275.292969 410.199219 C 277.292969 410.714844 279.339844 410.96875 281.441406 410.96875 C 287.28125 410.96875 290.203125 409.101562 290.203125 405.359375 C 290.203125 404.179688 289.867188 403.183594 289.203125 402.363281 C 288.539062 401.542969 287.589844 400.824219 286.359375 400.210938 C 285.132812 399.59375 283.644531 399.03125 281.902344 398.519531 C 280.160156 398.007812 278.214844 397.441406 276.0625 396.828125 C 273.449219 396.113281 271.183594 395.328125 269.261719 394.484375 C 267.339844 393.640625 265.738281 392.640625 264.457031 391.488281 C 263.175781 390.335938 262.214844 389.003906 261.574219 387.492188 C 260.933594 385.980469 260.613281 384.175781 260.613281 382.074219 C 260.613281 379.308594 261.128906 376.847656 262.152344 374.695312 C 263.175781 372.542969 264.597656 370.75 266.417969 369.316406 C 268.234375 367.882812 270.347656 366.792969 272.757812 366.050781 C 275.164062 365.308594 277.753906 364.9375 280.519531 364.9375 C 284.359375 364.9375 287.898438 365.539062 291.125 366.742188 C 294.351562 367.945312 297.167969 369.367188 299.578125 371.007812 Z M 294.890625 379.613281 " style=" stroke:none;fill-rule:nonzero;fill:rgb(100%,96.078431%,79.607843%);fill-opacity:1;" />
</g>
</svg>