<?xml version="1.0" encoding="iso-8859-1"?>
<!-- Generator: Adobe Illustrator 19.0.0, SVG Export Plug-In . SVG Version: 6.00 Build 0)  -->
<svg version="1.1" id="Capa_1" xmlns="http://www.w3.org/2000/svg" xmlns:xlink="http://www.w3.org/1999/xlink" x="0px" y="0px"
	 viewBox="0 0 512 512" style="enable-background:new 0 0 512 512;" xml:space="preserve">
<circle style="fill:#35CCFF;" cx="256" cy="256" r="256"/>
<path style="fill:#00BAFF;" d="M512,256c0-12.301-0.887-24.393-2.564-36.23L420.667,131L91.333,381l128.436,128.436
	C231.607,511.113,243.699,512,256,512C397.385,512,512,397.385,512,256z"/>
<rect x="91.33" y="131" style="fill:#FFFFFF;" width="329.33" height="250"/>
<g>
	<rect x="256" y="131" style="fill:#E0E0E0;" width="164.67" height="250"/>
	<rect x="91.33" y="131" style="fill:#E0E0E0;" width="329.33" height="32.17"/>
</g>
<rect x="256" y="131" style="fill:#C0C0C0;" width="164.67" height="32.17"/>
<g>
	<circle style="fill:#FF6838;" cx="111.17" cy="147.08" r="8.917"/>
	<circle style="fill:#FF6838;" cx="137.92" cy="147.08" r="8.917"/>
	<circle style="fill:#FF6838;" cx="164.67" cy="147.08" r="8.917"/>
</g>
<path style="fill:#005C83;" d="M398.935,288.631l12.22-12.22c-6.986-9.995-15.69-18.699-25.685-25.685l-12.22,12.22
	c-8.682-5.628-18.436-9.741-28.888-11.972v-17.289c-5.897-1.043-11.966-1.589-18.162-1.589c-6.196,0-12.265,0.546-18.162,1.589
	v17.289c-10.452,2.23-20.205,6.344-28.888,11.971l-12.22-12.22c-9.995,6.986-18.699,15.69-25.685,25.685l12.22,12.22
	c-5.628,8.682-9.741,18.436-11.972,28.888h-17.289c-1.043,5.897-1.589,11.966-1.589,18.162c0,6.196,0.546,12.265,1.589,18.162
	h17.289c2.23,10.452,6.344,20.205,11.972,28.888l-12.22,12.22c6.986,9.995,15.69,18.699,25.685,25.685l12.22-12.22
	c8.682,5.628,18.436,9.741,28.888,11.972v17.289c5.897,1.043,11.966,1.589,18.162,1.589c6.196,0,12.265-0.546,18.162-1.589v-17.289
	c10.452-2.23,20.205-6.344,28.888-11.972l12.22,12.22c9.995-6.986,18.699-15.69,25.685-25.685l-12.22-12.22
	c5.628-8.683,9.741-18.436,11.972-28.888h17.289c1.043-5.897,1.589-11.966,1.589-18.162c0-6.196-0.546-12.265-1.589-18.162h-17.289
	C408.676,307.067,404.563,297.314,398.935,288.631z M326.2,373.937c-21.128,0-38.256-17.128-38.256-38.256
	s17.128-38.256,38.256-38.256s38.256,17.128,38.256,38.256S347.327,373.937,326.2,373.937z"/>
<path style="fill:#00263F;" d="M428.195,353.844c1.043-5.897,1.589-11.966,1.589-18.163c0-6.196-0.546-12.265-1.589-18.162h-17.289
	c-2.23-10.452-6.344-20.206-11.971-28.888l12.22-12.22c-6.986-9.995-15.69-18.699-25.685-25.685l-12.22,12.22
	c-8.682-5.628-18.436-9.742-28.888-11.972v-17.289c-5.897-1.043-11.966-1.589-18.162-1.589c-0.402,0-0.799,0.022-1.199,0.026v65.333
	c0.399-0.012,0.797-0.03,1.199-0.03c21.128,0,38.256,17.127,38.256,38.255s-17.127,38.256-38.256,38.256
	c-0.402,0-0.8-0.018-1.199-0.03v65.333c0.401,0.004,0.798,0.026,1.199,0.026c6.197,0,12.265-0.546,18.162-1.589v-17.289
	c10.452-2.23,20.205-6.344,28.888-11.972l12.22,12.22c9.995-6.986,18.699-15.69,25.685-25.686l-12.22-12.22
	c5.628-8.683,9.741-18.436,11.971-28.888h17.289V353.844z"/>
<g>
	<path style="fill:#005C83;" d="M109.551,234.313v-54.465h23.244c2.608,0,4.999,0.537,7.173,1.61c2.173,1.074,4.039,2.481,5.6,4.22
		c1.56,1.739,2.787,3.708,3.682,5.906c0.895,2.2,1.343,4.424,1.343,6.674c0,2.404-0.422,4.706-1.266,6.904
		c-0.844,2.2-2.021,4.169-3.528,5.907c-1.509,1.739-3.337,3.12-5.485,4.142c-2.148,1.024-4.526,1.535-7.134,1.535h-11.046v17.566
		L109.551,234.313L109.551,234.313z M122.132,205.777h10.279c1.482,0,2.761-0.639,3.835-1.917s1.611-3.146,1.611-5.6
		c0-1.278-0.167-2.378-0.499-3.298c-0.333-0.921-0.78-1.688-1.342-2.302c-0.563-0.613-1.202-1.061-1.918-1.342
		c-0.717-0.281-1.432-0.422-2.148-0.422h-9.819L122.132,205.777L122.132,205.777z"/>
	<path style="fill:#005C83;" d="M203.983,179.849v54.465h-12.581V211.99h-21.709v22.323h-12.581v-54.465h12.581v21.096h21.709
		v-21.096h12.581V179.849z"/>
	<path style="fill:#005C83;" d="M214.416,234.313v-54.465h23.244c2.608,0,4.999,0.537,7.173,1.61c2.173,1.074,4.039,2.481,5.6,4.22
		c1.56,1.739,2.787,3.708,3.682,5.906c0.895,2.2,1.343,4.424,1.343,6.674c0,2.404-0.422,4.706-1.266,6.904
		c-0.844,2.2-2.021,4.169-3.528,5.907c-1.509,1.739-3.337,3.12-5.485,4.142c-2.148,1.024-4.526,1.535-7.134,1.535h-11.046v17.566
		L214.416,234.313L214.416,234.313z M226.997,205.777h10.279c1.482,0,2.761-0.639,3.835-1.917s1.611-3.146,1.611-5.6
		c0-1.278-0.167-2.378-0.499-3.298c-0.333-0.921-0.78-1.688-1.342-2.302c-0.563-0.613-1.202-1.061-1.918-1.342
		c-0.717-0.281-1.432-0.422-2.148-0.422h-9.819L226.997,205.777L226.997,205.777z"/>
</g>
<g>
</g>
<g>
</g>
<g>
</g>
<g>
</g>
<g>
</g>
<g>
</g>
<g>
</g>
<g>
</g>
<g>
</g>
<g>
</g>
<g>
</g>
<g>
</g>
<g>
</g>
<g>
</g>
<g>
</g>
</svg>
