<?xml version="1.0" encoding="iso-8859-1"?>
<!-- Generator: Adobe Illustrator 19.0.0, SVG Export Plug-In . SVG Version: 6.00 Build 0)  -->
<svg version="1.1" id="Capa_1" xmlns="http://www.w3.org/2000/svg" xmlns:xlink="http://www.w3.org/1999/xlink" x="0px" y="0px"
	 viewBox="0 0 512 512" style="enable-background:new 0 0 512 512;" xml:space="preserve">
<g>
	<g>
		<path d="M355,0H156C99.757,0,54,45.757,54,102c0,52.869,40.434,96.472,92,101.514V239c0,4.044,2.437,7.691,6.173,9.239
			c3.737,1.548,8.038,0.693,10.898-2.167L205.142,204h101.716l42.071,42.071c1.913,1.913,4.47,2.929,7.073,2.929
			c1.288,0,2.588-0.25,3.825-0.762c3.737-1.548,6.173-5.194,6.173-9.239v-35.591c23.267-2.482,44.811-12.811,61.487-29.652
			C446.519,154.536,457,129.052,457,102C457,45.757,411.243,0,355,0z M355.894,183.988c-5.481,0.058-9.894,4.518-9.894,9.999v20.871
			l-27.929-27.929C316.196,185.054,313.652,184,311,184H201c-2.652,0-5.196,1.054-7.071,2.929L166,214.858V194
			c0-5.523-4.477-10-10-10c-45.215,0-82-36.785-82-82c0-45.215,36.785-82,82-82h199c45.215,0,82,36.785,82,82
			C437,146.731,400.616,183.511,355.894,183.988z"/>
	</g>
</g>
<g>
	<g>
		<path d="M324.071,53.929c-3.905-3.906-10.237-3.906-14.142,0l-7.221,7.221C291.336,48.199,274.676,40,256.127,40
			c-34.187,0-62,27.813-62,62s27.813,62,62,62s62-27.813,62-62c0-8.273-1.641-16.167-4.595-23.389l10.539-10.539
			C327.976,64.167,327.976,57.835,324.071,53.929z M256.127,144c-23.159,0-42-18.841-42-42s18.841-42,42-42
			c13.035,0,24.703,5.97,32.412,15.319L264.5,99.358l-10.429-10.429c-3.905-3.905-10.237-3.905-14.143,0
			c-3.905,3.905-3.905,10.237,0,14.143l17.5,17.5c1.953,1.953,4.512,2.929,7.071,2.929s5.119-0.976,7.071-2.929l25.902-25.902
			c0.423,2.382,0.655,4.829,0.655,7.33C298.127,125.159,279.286,144,256.127,144z"/>
	</g>
</g>
<g>
	<g>
		<path d="M141.951,338.061c7.287-8.902,11.668-20.271,11.668-32.646v-17.718c0-28.463-23.156-51.619-51.619-51.619
			s-51.619,23.156-51.619,51.619v17.718c0,12.375,4.381,23.744,11.668,32.646C26.892,343.917,0,374.532,0,411.326V502
			c0,5.523,4.477,10,10,10h184c5.523,0,10-4.477,10-10v-90.674C204,374.532,177.108,343.917,141.951,338.061z M70.381,287.697
			c0-17.435,14.184-31.619,31.619-31.619s31.619,14.184,31.619,31.619v17.718c0,17.435-14.184,31.619-31.619,31.619
			s-31.619-14.184-31.619-31.619V287.697z M184,492H20v-80.674c0-29.936,24.355-54.291,54.291-54.291H92v25.233
			c0,5.523,4.477,10,10,10s10-4.477,10-10v-25.233h17.709c29.936,0,54.291,24.355,54.291,54.291V492z"/>
	</g>
</g>
<g>
	<g>
		<path d="M449.951,338.061c7.287-8.902,11.668-20.271,11.668-32.646v-17.718c0-28.463-23.156-51.619-51.619-51.619
			c-28.463,0-51.619,23.156-51.619,51.619v17.718c0,12.375,4.381,23.744,11.668,32.646C334.892,343.917,308,374.532,308,411.326V502
			c0,5.523,4.477,10,10,10h184c5.523,0,10-4.477,10-10v-90.674C512,374.532,485.108,343.917,449.951,338.061z M378.381,287.697
			c0-17.435,14.184-31.619,31.619-31.619s31.619,14.184,31.619,31.619v17.718c0,17.435-14.184,31.619-31.619,31.619
			s-31.619-14.184-31.619-31.619V287.697z M492,492H328v-80.674c0-29.936,24.355-54.291,54.291-54.291H400v25.233
			c0,5.523,4.477,10,10,10s10-4.477,10-10v-25.233h17.709c29.936,0,54.291,24.355,54.291,54.291V492z"/>
	</g>
</g>
<g>
	<g>
		<path d="M417.07,411.44c-1.86-1.86-4.44-2.92-7.07-2.92s-5.21,1.06-7.07,2.92c-1.86,1.86-2.93,4.44-2.93,7.07
			c0,2.64,1.07,5.21,2.93,7.08c1.86,1.86,4.44,2.92,7.07,2.92s5.21-1.06,7.07-2.92c1.86-1.87,2.93-4.44,2.93-7.08
			C420,415.88,418.93,413.31,417.07,411.44z"/>
	</g>
</g>
<g>
	<g>
		<path d="M109.07,411.44c-1.86-1.86-4.44-2.92-7.07-2.92s-5.21,1.06-7.07,2.92c-1.86,1.86-2.93,4.44-2.93,7.07
			c0,2.64,1.07,5.21,2.93,7.08c1.86,1.86,4.44,2.92,7.07,2.92s5.21-1.06,7.07-2.92c1.86-1.87,2.93-4.44,2.93-7.08
			C112,415.88,110.93,413.31,109.07,411.44z"/>
	</g>
</g>
<g>
</g>
<g>
</g>
<g>
</g>
<g>
</g>
<g>
</g>
<g>
</g>
<g>
</g>
<g>
</g>
<g>
</g>
<g>
</g>
<g>
</g>
<g>
</g>
<g>
</g>
<g>
</g>
<g>
</g>
</svg>
