<?xml version="1.0" encoding="iso-8859-1"?>
<!-- Generator: Adobe Illustrator 19.0.0, SVG Export Plug-In . SVG Version: 6.00 Build 0)  -->
<svg version="1.1" id="Capa_1" xmlns="http://www.w3.org/2000/svg" xmlns:xlink="http://www.w3.org/1999/xlink" x="0px" y="0px"
	 viewBox="0 0 480 480" style="enable-background:new 0 0 480 480;" xml:space="preserve">
<g>
	<g>
		<rect x="136" y="408.009" width="16" height="16"/>
	</g>
</g>
<g>
	<g>
		<rect x="168" y="408.009" width="16" height="16"/>
	</g>
</g>
<g>
	<g>
		<rect x="136" y="312.009" width="16" height="16"/>
	</g>
</g>
<g>
	<g>
		<rect x="168" y="312.009" width="16" height="16"/>
	</g>
</g>
<g>
	<g>
		<path d="M376,120.009c-4.629,0.002-9.252,0.312-13.84,0.928C340.602,49.019,264.824,8.194,192.906,29.752
			C138.064,46.191,99.4,95.229,96.208,152.393c-2.728-0.256-5.472-0.384-8.208-0.384c-48.601,0-88,39.399-88,88s39.399,88,88,88h16
			v24c0,4.418,3.582,8,8,8h16v16h-16c-4.418,0-8,3.582-8,8v64c0,4.418,3.582,8,8,8h256c4.418,0,8-3.582,8-8v-64c0-4.418-3.582-8-8-8
			h-16v-16h16c4.418,0,8-3.582,8-8v-24c57.438,0,104-46.562,104-104S433.438,120.009,376,120.009z M360,392.009v48H120v-48H360z
			 M144,376.009v-16h192v16H144z M360,344.009H120v-48h240V344.009z M393.993,310.145c-5.918,1.238-11.947,1.862-17.993,1.864v-24
			c0-4.418-3.582-8-8-8h-80v-72h73.472c4.418,12.497,18.131,19.046,30.627,14.627c12.497-4.418,19.046-18.131,14.627-30.627
			c-4.418-12.497-18.131-19.046-30.627-14.627c-6.835,2.416-12.211,7.793-14.627,14.627H280c-4.418,0-8,3.582-8,8v80h-40v-152
			h33.472c4.418,12.497,18.131,19.046,30.627,14.627c12.497-4.418,19.046-18.131,14.627-30.627
			c-4.418-12.497-18.131-19.046-30.627-14.627c-6.835,2.416-12.211,7.793-14.627,14.627H224c-4.418,0-8,3.582-8,8v160h-40v-56
			c0-4.418-3.582-8-8-8h-41.472c-4.418-12.497-18.131-19.046-30.627-14.627s-19.046,18.131-14.627,30.627
			s18.131,19.046,30.627,14.627c6.835-2.416,12.211-7.793,14.627-14.627H160v48h-48c-4.418,0-8,3.582-8,8v24H88
			c-39.765,0-72-32.236-72-72c0-39.765,32.235-72,72-72c4.869,0.004,9.725,0.494,14.496,1.464c2.372,0.464,4.827-0.155,6.696-1.688
			c1.862-1.546,2.924-3.852,2.888-6.272c0-0.16-0.072-1.344-0.08-1.504C111.956,93.77,165.617,40.037,231.856,39.993
			c55.474-0.037,103.734,37.974,116.696,91.912c1.008,4.205,5.174,6.848,9.408,5.968c47.572-9.95,94.202,20.548,104.152,68.12
			S441.564,300.195,393.993,310.145z M376,200.009c0-4.418,3.582-8,8-8s8,3.582,8,8s-3.582,8-8,8S376,204.427,376,200.009z
			 M280,120.009c0-4.418,3.582-8,8-8s8,3.582,8,8s-3.582,8-8,8S280,124.427,280,120.009z M112,224.009c0,4.418-3.582,8-8,8
			s-8-3.582-8-8s3.582-8,8-8S112,219.59,112,224.009z"/>
	</g>
</g>
<g>
</g>
<g>
</g>
<g>
</g>
<g>
</g>
<g>
</g>
<g>
</g>
<g>
</g>
<g>
</g>
<g>
</g>
<g>
</g>
<g>
</g>
<g>
</g>
<g>
</g>
<g>
</g>
<g>
</g>
</svg>
