<?xml version="1.0" encoding="iso-8859-1"?>
<!-- Generator: Adobe Illustrator 19.0.0, SVG Export Plug-In . SVG Version: 6.00 Build 0)  -->
<svg version="1.1" id="Capa_1" xmlns="http://www.w3.org/2000/svg" xmlns:xlink="http://www.w3.org/1999/xlink" x="0px" y="0px"
	 viewBox="0 0 512 512" style="enable-background:new 0 0 512 512;" xml:space="preserve">
<g>
	<g>
		<path d="M457.846,24.615H54.154C24.293,24.615,0,48.909,0,78.769v221.538v34.462c0,29.86,24.293,54.154,54.154,54.154h130.759
			l-15.754,78.769h-51.005c-5.438,0-9.846,4.408-9.846,9.846s4.408,9.846,9.846,9.846h275.692c5.438,0,9.846-4.408,9.846-9.846
			s-4.408-9.846-9.846-9.846h-51.005l-15.754-78.769h130.759c29.86,0,54.154-24.293,54.154-54.154v-34.462V78.769
			C512,48.909,487.707,24.615,457.846,24.615z M189.241,467.692l15.754-78.769h102.01l15.754,78.769H189.241z M492.308,334.769
			c0,19.002-15.459,34.462-34.462,34.462H54.154c-19.002,0-34.462-15.459-34.462-34.462v-24.615h472.615V334.769z M492.308,290.462
			H19.692v-19.692h59.077c5.438,0,9.846-4.408,9.846-9.846s-4.408-9.846-9.846-9.846H19.692V78.769
			c0-19.002,15.459-34.462,34.462-34.462h403.692c19.002,0,34.462,15.459,34.462,34.462V290.462z"/>
	</g>
</g>
<g>
	<g>
		<path d="M256,320c-10.858,0-19.692,8.834-19.692,19.692s8.834,19.692,19.692,19.692s19.692-8.834,19.692-19.692
			S266.858,320,256,320z"/>
	</g>
</g>
<g>
	<g>
		<path d="M336.612,213.185l-20.887-20.887l17.406-17.405c2.531-2.531,3.489-6.236,2.502-9.677c-0.987-3.44-3.763-6.074-7.251-6.88
			l-90.51-20.887c-3.307-0.761-6.775,0.231-9.177,2.632c-2.4,2.401-3.395,5.868-2.632,9.177l20.889,90.509
			c0.805,3.487,3.439,6.264,6.88,7.251c3.442,0.986,7.145,0.028,9.677-2.502l17.405-17.406l20.887,20.887
			c1.923,1.923,4.443,2.884,6.962,2.884s5.04-0.961,6.962-2.884l20.887-20.887C340.456,223.265,340.456,217.031,336.612,213.185z
			 M308.763,227.11l-20.887-20.887c-1.923-1.923-4.443-2.884-6.962-2.884s-5.04,0.961-6.962,2.884l-11.806,11.807l-13.35-57.849
			l57.849,13.349l-11.807,11.806c-3.845,3.845-3.845,10.08,0,13.925l20.887,20.887L308.763,227.11z"/>
	</g>
</g>
<g>
	<g>
		<path d="M215.471,112.931l-9.846-9.846c-3.845-3.845-10.08-3.845-13.925,0c-3.845,3.845-3.845,10.079,0,13.925l9.847,9.846
			c1.923,1.923,4.443,2.884,6.962,2.884s5.04-0.961,6.962-2.884C219.316,123.012,219.316,116.777,215.471,112.931z"/>
	</g>
</g>
<g>
	<g>
		<path d="M196.274,139.587H182.35c-5.438,0-9.846,4.408-9.846,9.846c0,5.438,4.408,9.846,9.846,9.846h13.924
			c5.438,0,9.846-4.408,9.846-9.846C206.12,143.995,201.712,139.587,196.274,139.587z"/>
	</g>
</g>
<g>
	<g>
		<path d="M215.471,172.008c-3.844-3.845-10.078-3.845-13.924,0l-9.846,9.846c-3.845,3.845-3.845,10.08,0,13.925
			c1.923,1.923,4.443,2.884,6.962,2.884s5.04-0.961,6.962-2.884l9.846-9.846C219.316,182.089,219.316,175.854,215.471,172.008z"/>
	</g>
</g>
<g>
	<g>
		<path d="M284.395,103.085c-3.845-3.845-10.079-3.845-13.925,0l-9.846,9.846c-3.845,3.845-3.845,10.08,0,13.925
			c1.923,1.923,4.443,2.884,6.963,2.884c2.52,0,5.04-0.961,6.962-2.884l9.846-9.846C288.24,113.166,288.24,106.931,284.395,103.085z
			"/>
	</g>
</g>
<g>
	<g>
		<path d="M238.049,83.888c-5.438,0-9.846,4.408-9.846,9.846v13.924c0,5.438,4.408,9.846,9.846,9.846
			c5.438,0,9.846-4.408,9.846-9.846V93.734C247.895,88.296,243.487,83.888,238.049,83.888z"/>
	</g>
</g>
<g>
	<g>
		<path d="M117.957,259.003c-0.118-0.63-0.315-1.25-0.561-1.851c-0.246-0.591-0.551-1.162-0.906-1.694
			c-0.354-0.542-0.768-1.044-1.221-1.497c-0.453-0.453-0.955-0.866-1.497-1.221c-0.532-0.354-1.103-0.66-1.703-0.906
			c-0.591-0.246-1.211-0.443-1.841-0.561c-1.27-0.256-2.57-0.256-3.84,0c-0.63,0.118-1.25,0.315-1.841,0.561
			c-0.601,0.246-1.172,0.551-1.703,0.906c-0.542,0.354-1.044,0.768-1.497,1.221c-0.453,0.453-0.866,0.955-1.221,1.497
			c-0.354,0.532-0.66,1.103-0.906,1.694c-0.246,0.601-0.443,1.221-0.561,1.851c-0.128,0.63-0.197,1.28-0.197,1.92
			c0,0.64,0.069,1.29,0.197,1.92c0.118,0.63,0.315,1.25,0.561,1.841c0.246,0.601,0.551,1.172,0.906,1.703
			c0.354,0.542,0.768,1.044,1.221,1.497c0.453,0.453,0.955,0.866,1.497,1.221c0.532,0.354,1.103,0.66,1.703,0.906
			c0.591,0.246,1.211,0.443,1.841,0.571c0.63,0.128,1.28,0.187,1.92,0.187s1.29-0.059,1.92-0.187c0.63-0.128,1.25-0.325,1.841-0.571
			c0.601-0.246,1.172-0.551,1.703-0.906c0.542-0.354,1.044-0.768,1.497-1.221c0.453-0.453,0.866-0.955,1.221-1.497
			c0.354-0.532,0.66-1.103,0.906-1.703c0.246-0.591,0.443-1.211,0.561-1.841c0.128-0.63,0.197-1.28,0.197-1.92
			S118.085,259.633,117.957,259.003z"/>
	</g>
</g>
<g>
</g>
<g>
</g>
<g>
</g>
<g>
</g>
<g>
</g>
<g>
</g>
<g>
</g>
<g>
</g>
<g>
</g>
<g>
</g>
<g>
</g>
<g>
</g>
<g>
</g>
<g>
</g>
<g>
</g>
</svg>
